<?xml version="1.0" encoding="utf-8"?>
<!-- Generated by IcoMoon.io -->
<!DOCTYPE svg PUBLIC "-//W3C//DTD SVG 1.1//EN" "http://www.w3.org/Graphics/SVG/1.1/DTD/svg11.dtd">
<svg version="1.1" xmlns="http://www.w3.org/2000/svg" xmlns:xlink="http://www.w3.org/1999/xlink" width="32" height="32" viewBox="0 0 32 32">
<path fill="#444444" d="M3.577 14.249h24.846l-2.668-8.004h-19.51zM25.755 23.087q1.084 0 1.876-0.792t0.792-1.876-0.792-1.876-1.876-0.792-1.876 0.792-0.792 1.876 0.792 1.876 1.876 0.792zM6.245 23.087q1.084 0 1.876-0.792t0.792-1.876-0.792-1.876-1.876-0.792-1.876 0.792-0.792 1.876 0.792 1.876 1.876 0.792zM28.34 5.328l3.669 10.672v14.257q0 0.75-0.5 1.251t-1.251 0.5h-1.834q-0.75 0-1.251-0.5t-0.5-1.251v-1.834h-21.345v1.834q0 0.75-0.5 1.251t-1.251 0.5h-1.834q-0.75 0-1.251-0.5t-0.5-1.251v-14.257l3.669-10.672q0.5-1.751 2.585-1.751h19.51q2.084 0 2.585 1.751z"></path>
</svg>
