<?xml version="1.0" encoding="utf-8"?>
<!-- Generated by IcoMoon.io -->
<!DOCTYPE svg PUBLIC "-//W3C//DTD SVG 1.1//EN" "http://www.w3.org/Graphics/SVG/1.1/DTD/svg11.dtd">
<svg version="1.1" xmlns="http://www.w3.org/2000/svg" xmlns:xlink="http://www.w3.org/1999/xlink" width="768" height="768" viewBox="0 0 768 768"><g id="icomoon-ignore">
</g>
<path d="M160.5 352.5h447l-48-144h-351zM559.5 511.5q19.5 0 33.75-14.25t14.25-33.75-14.25-33.75-33.75-14.25-33.75 14.25-14.25 33.75 14.25 33.75 33.75 14.25zM208.5 511.5q19.5 0 33.75-14.25t14.25-33.75-14.25-33.75-33.75-14.25-33.75 14.25-14.25 33.75 14.25 33.75 33.75 14.25zM606 192l66 192v256.5q0 13.5-9 22.5t-22.5 9h-33q-13.5 0-22.5-9t-9-22.5v-33h-384v33q0 13.5-9 22.5t-22.5 9h-33q-13.5 0-22.5-9t-9-22.5v-256.5l66-192q9-31.5 46.5-31.5h351q37.5 0 46.5 31.5z"></path>
</svg>
